<svg width="32" height="32" viewBox="0 0 32 32" fill="none" xmlns="http://www.w3.org/2000/svg">
  <rect x="1" y="1" width="30" height="30" rx="7" fill="url(#g)" />
  <line x1="6" y1="25" x2="26" y2="25" stroke="rgba(255,255,255,0.30)" stroke-width="1.1" />
  <path d="M6 25 C 9 23, 11 6, 26 6" stroke="#ef4444" stroke-width="1.7" stroke-linecap="round" fill="none" />
  <path d="M6 25 C 9 24, 11 9, 26 10" stroke="#f97316" stroke-width="1.7" stroke-linecap="round" fill="none" />
  <path d="M6 25 C 10 25, 13 12, 26 14" stroke="#eab308" stroke-width="1.7" stroke-linecap="round" fill="none" />
  <path d="M6 25 C 10 25, 14 16, 26 18" stroke="#22c55e" stroke-width="1.7" stroke-linecap="round" fill="none" />
  <path d="M6 25 C 11 25, 16 20, 26 21" stroke="#3b82f6" stroke-width="1.7" stroke-linecap="round" fill="none" />
  <path d="M6 25 C 12 25, 18 23, 26 24" stroke="#a855f7" stroke-width="1.7" stroke-linecap="round" fill="none" />
  <circle cx="6" cy="25" r="1.6" fill="white" />
  <defs>
    <linearGradient id="g" x1="0" y1="0" x2="32" y2="32" gradientUnits="userSpaceOnUse">
      <stop stop-color="#0f172a" />
      <stop offset="1" stop-color="#1e293b" />
    </linearGradient>
  </defs>
</svg>
