<svg width="32" height="32" viewBox="0 0 32 32" fill="none" xmlns="http://www.w3.org/2000/svg">
  <rect x="1" y="1" width="30" height="30" rx="7" fill="url(#bg)" stroke="#e2e8f0" stroke-width="0.75" />
  <line x1="4" y1="25" x2="28" y2="25" stroke="#cbd5e1" stroke-width="1.1" stroke-linecap="round" />
  <path d="M4 25 C 10 25, 15 23, 19 8 C 21 14, 24 23, 28 25" stroke="#a855f7" stroke-width="1.6" stroke-linecap="round" fill="none" />
  <path d="M4 25 C 10 25, 14 22, 18 10 C 20 15, 23 23, 27 25" stroke="#3b82f6" stroke-width="1.6" stroke-linecap="round" fill="none" />
  <path d="M4 25 C 9 25, 13 22, 17 12 C 19 16, 22 23, 26 25" stroke="#22c55e" stroke-width="1.6" stroke-linecap="round" fill="none" />
  <path d="M4 25 C 9 25, 12 22, 16 14 C 18 17.5, 21 23, 25 25 L25 25 L4 25 Z" fill="url(#fill)" opacity="0.85" />
  <path d="M4 25 C 9 25, 12 22, 16 14 C 18 17.5, 21 23, 25 25" stroke="#ef4444" stroke-width="1.8" stroke-linecap="round" fill="none" />
  <defs>
    <linearGradient id="bg" x1="0" y1="0" x2="32" y2="32" gradientUnits="userSpaceOnUse">
      <stop stop-color="#f8fafc" />
      <stop offset="1" stop-color="#eef2ff" />
    </linearGradient>
    <linearGradient id="fill" x1="0" y1="4" x2="0" y2="25" gradientUnits="userSpaceOnUse">
      <stop stop-color="#fb923c" stop-opacity="0.55" />
      <stop offset="1" stop-color="#ef4444" stop-opacity="0.10" />
    </linearGradient>
  </defs>
</svg>
